<svg width="1200" height="320" viewBox="0 0 1200 320" fill="none" xmlns="http://www.w3.org/2000/svg">
<defs>
  <linearGradient id="bg" x1="0" y1="0" x2="1200" y2="320" gradientUnits="userSpaceOnUse">
    <stop stop-color="#020204"/>
    <stop offset="0.56" stop-color="#05070B"/>
    <stop offset="1" stop-color="#07152D"/>
  </linearGradient>
  <linearGradient id="blue" x1="250" y1="0" x2="1060" y2="0">
    <stop stop-color="#0066FF"/>
    <stop offset=".55" stop-color="#00A3FF"/>
    <stop offset="1" stop-color="#54C8FF"/>
  </linearGradient>
  <radialGradient id="glow" cx="0" cy="0" r="1" gradientUnits="userSpaceOnUse" gradientTransform="translate(900 225) rotate(180) scale(340 170)">
    <stop stop-color="#0066FF" stop-opacity=".28"/>
    <stop offset="1" stop-color="#0066FF" stop-opacity="0"/>
  </radialGradient>
</defs>
<rect width="1200" height="320" rx="28" fill="url(#bg)"/>
<rect width="1200" height="320" rx="28" fill="url(#glow)"/>
<g opacity=".15" stroke="#128CFF">
  <path d="M720 0V320"/><path d="M790 0V320"/><path d="M860 0V320"/><path d="M930 0V320"/><path d="M1000 0V320"/><path d="M1070 0V320"/><path d="M1140 0V320"/>
  <path d="M680 72H1200"/><path d="M680 142H1200"/><path d="M680 212H1200"/><path d="M680 282H1200"/>
</g>
<g opacity=".8">
  <rect x="1038" y="172" width="18" height="18" fill="#E8F6FF"/><rect x="1062" y="172" width="18" height="18" fill="#85D8FF"/><rect x="1086" y="172" width="18" height="18" fill="#128CFF"/>
  <rect x="1014" y="196" width="18" height="18" fill="#85D8FF"/><rect x="1038" y="196" width="18" height="18" fill="#128CFF"/><rect x="1062" y="196" width="18" height="18" fill="#0066FF"/>
  <rect x="990" y="220" width="18" height="18" fill="#128CFF"/><rect x="1014" y="220" width="18" height="18" fill="#0066FF"/>
</g>
<path d="M405 241C455 175 500 178 537 240C566 287 592 168 622 240C650 305 674 118 706 239C730 328 758 191 786 241" stroke="url(#blue)" stroke-width="2.2" opacity=".9"/>
<path d="M330 250C386 242 417 208 459 250" stroke="#0066FF" stroke-width="2" opacity=".7"/>
<text x="600" y="92" text-anchor="middle" fill="#FFFFFF" font-family="Inter,Segoe UI,Arial,sans-serif" font-size="20" font-weight="600" letter-spacing="4">DENOS KUME</text>
<text x="600" y="154" text-anchor="middle" fill="#FFFFFF" font-family="Inter,Segoe UI,Arial,sans-serif" font-size="48" font-weight="800" letter-spacing=".5">MACHINE LEARNING</text>
<rect x="595" y="116" width="4" height="49" fill="#0066FF"/>
<text x="820" y="154" text-anchor="middle" fill="#FFFFFF" font-family="Inter,Segoe UI,Arial,sans-serif" font-size="48" font-weight="800" letter-spacing=".5">COMPUTER VISION</text>
<text x="600" y="202" text-anchor="middle" fill="#D6E9FF" font-family="Inter,Segoe UI,Arial,sans-serif" font-size="18" font-weight="500" letter-spacing="5">SIGNAL &amp; IMAGE PROCESSING  |  APPLIED AI</text>
<text x="600" y="286" text-anchor="middle" fill="#83CFFF" font-family="Inter,Segoe UI,Arial,sans-serif" font-size="14" font-weight="600" letter-spacing="2">M2 MSc · Centrale Nantes</text>
</svg>